<svg width="172" height="212" viewBox="0 0 172 212" fill="none" xmlns="http://www.w3.org/2000/svg">
  <rect x="1.5" y="1.5" width="169" height="150" rx="8.5" fill="#fff" stroke="#5CC0FF" stroke-width="3"/>
  <rect x="1.5" y="1.5" width="169" height="150" rx="8.5" fill="#fff"/>
  <rect x="1.5" y="1.5" width="169" height="150" rx="8.5" stroke="#5CC0FF" stroke-width="3"/>
  <rect x="1.5" y="1.5" width="169" height="150" rx="8.5" stroke="#5CC0FF" stroke-width="3"/>
  <rect x="1.5" y="1.5" width="169" height="150" rx="8.5" stroke="#5CC0FF" stroke-width="3"/>
  <rect x="1.5" y="1.5" width="169" height="150" rx="8.5" stroke="#5CC0FF" stroke-width="3"/>
  <rect x="1.5" y="1.5" width="169" height="150" rx="8.5" stroke="#5CC0FF" stroke-width="3"/>
  <rect x="1.5" y="1.5" width="169" height="150" rx="8.5" stroke="#5CC0FF" stroke-width="3"/>
  <rect x="1.5" y="1.5" width="169" height="150" rx="8.5" stroke="#5CC0FF" stroke-width="3"/>
  <rect x="1.5" y="1.5" width="169" height="150" rx="8.5" stroke="#5CC0FF" stroke-width="3"/>
  <rect x="1.5" y="1.5" width="169" height="150" rx="8.5" stroke="#5CC0FF" stroke-width="3"/>
  <rect x="1.5" y="1.5" width="169" height="150" rx="8.5" stroke="#5CC0FF" stroke-width="3"/>
  <rect x="1.5" y="1.5" width="169" height="150" rx="8.5" stroke="#5CC0FF" stroke-width="3"/>
  <rect x="1.5" y="1.5" width="169" height="150" rx="8.5" stroke="#5CC0FF" stroke-width="3"/>
  <rect x="1.5" y="1.5" width="169" height="150" rx="8.5" stroke="#5CC0FF" stroke-width="3"/>
  <rect x="1.5" y="1.5" width="169" height="150" rx="8.5" stroke="#5CC0FF" stroke-width="3"/>
  <rect x="1.5" y="1.5" width="169" height="150" rx="8.5" stroke="#5CC0FF" stroke-width="3"/>
  <rect x="1.5" y="1.5" width="169" height="150" rx="8.5" stroke="#5CC0FF" stroke-width="3"/>
  <rect x="1.5" y="1.5" width="169" height="150" rx="8.5" stroke="#5CC0FF" stroke-width="3"/>
  <rect x="1.5" y="1.5" width="169" height="150" rx="8.5" stroke="#5CC0FF" stroke-width="3"/>
  <rect x="1.5" y="1.5" width="169" height="150" rx="8.5" stroke="#5CC0FF" stroke-width="3"/>
  <rect x="1.5" y="1.5" width="169" height="150" rx="8.5" stroke="#5CC0FF" stroke-width="3"/>
  <rect x="1.5" y="1.5" width="169" height="150" rx="8.5" stroke="#5CC0FF" stroke-width="3"/>
  <rect x="1.5" y="1.5" width="169" height="150" rx="8.5" stroke="#5CC0FF" stroke-width="3"/>
  <rect x="1.5" y="1.5" width="169" height="150" rx="8.5" stroke="#5CC0FF" stroke-width="3"/>
  <rect x="1.5" y="1.5" width="169" height="150" rx="8.5" stroke="#5CC0FF" stroke-width="3"/>
  <rect x="1.5" y="1.5" width="169" height="150" rx="8.5" stroke="#5CC0FF" stroke-width="3"/>
  <rect x="1.5" y="1.5" width="169" height="150" rx="8.5" stroke="#5CC0FF" stroke-width="3"/>
  <rect x="1.5" y="1.5" width="169" height="150" rx="8.5" stroke="#5CC0FF" stroke-width="3"/>
  <rect x="1.5" y="1.5" width="169" height="150" rx="8.5" stroke="#5CC0FF" stroke-width="3"/>
  <rect x="1.5" y="1.5" width="169" height="150" rx="8.5" stroke="#5CC0FF" stroke-width="3"/>
  <rect x="1.5" y="1.5" width="169" height="150" rx="8.5" stroke="#5CC0FF" stroke-width="3"/>
  <rect x="1.5" y="1.5" width="169" height="150" rx="8.5" stroke="#5CC0FF" stroke-width="3"/>
  <rect x="1.5" y="1.5" width="169" height="150" rx="8.5" stroke="#5CC0FF" stroke-width="3"/>
  <rect x="1.5" y="1.5" width="169" height="150" rx="8.5" stroke="#5CC0FF" stroke-width="3"/>
  <rect x="1.5" y="1.5" width="169" height="150" rx="8.5" stroke="#5CC0FF" stroke-width="3"/>
  <rect x="1.5" y="1.5" width="169" height="150" rx="8.5" stroke="#5CC0FF" stroke-width="3"/>
  <rect x="1.5" y="1.5" width="169" height="150" rx="8.5" stroke="#5CC0FF" stroke-width="3"/>
  <rect x="1.5" y="1.5" width="169" height="150" rx="8.5" stroke="#5CC0FF" stroke-width="3"/>
  <rect x="1.5" y="1.5" width="169" height="150" rx="8.5" stroke="#5CC0FF" stroke-width="3"/>
  <rect x="1.5" y="1.5" width="169" height="150" rx="8.5" stroke="#5CC0FF" stroke-width="3"/>
  <rect x="1.5" y="1.5" width="169" height="150" rx="8.5" stroke="#5CC0FF" stroke-width="3"/>
  <rect x="1.5" y="1.5" width="169" height="150" rx="8.5" stroke="#5CC0FF" stroke-width="3"/>
  <rect x="1.5" y="1.5" width="169" height="150" rx="8.5" stroke="#5CC0FF" stroke-width="3"/>
  <rect x="1.5" y="1.5" width="169" height="150" rx="8.5" stroke="#5CC0FF" stroke-width="3"/>
  <rect x="1.5" y="1.5" width="169" height="150" rx="8.5" stroke="#5CC0FF" stroke-width="3"/>
  <rect x="1.5" y="1.5" width="169" height="150" rx="8.5" stroke="#5CC0FF" stroke-width="3"/>
  <rect x="1.5" y="1.5" width="169" height="150" rx="8.5" stroke="#5CC0FF" stroke-width="3"/>
  <rect x="1.5" y="1.5" width="169" height="150" rx="8.5" stroke="#5CC0FF" stroke-width="3"/>
  <rect x="1.5" y="1.5" width="169" height="150" rx="8.5" stroke="#5CC0FF" stroke-width="3"/>
  <rect x="1.5" y="1.5" width="169" height="150" rx="8.5" stroke="#5CC0FF" stroke-width="3"/>
  <rect x="1.5" y="1.5" width="169" height="150" rx="8.5" stroke="#5CC0FF" stroke-width="3"/>
  <rect x="1.5" y="1.5" width="169" height="150" rx="8.5" stroke="#5CC0FF" stroke-width="3"/>
  <rect x="1.5" y="1.5" width="169" height="150" rx="8.5" stroke="#5CC0FF" stroke-width="3"/>
  <rect x="1.5" y="1.5" width="169" height="150" rx="8.5" stroke="#5CC0FF" stroke-width="3"/>
  <rect x="1.5" y="1.5" width="169" height="150" rx="8.5" stroke="#5CC0FF" stroke-width="3"/>
  <rect x="1.5" y="1.5" width="169" height="150" rx="8.5" stroke="#5CC0FF" stroke-width="3"/>
  <rect x="1.5" y="1.5" width="169" height="150" rx="8.5" stroke="#5CC0FF" stroke-width="3"/>
  <rect x="1.5" y="1.5" width="169" height="150" rx="8.5" stroke="#5CC0FF" stroke-width="3"/>
  <rect x="1.5" y="1.5" width="169" height="150" rx="8.5" stroke="#5CC0FF" stroke-width="3"/>
  <rect x="1.5" y="1.5" width="169" height="150" rx="8.5" stroke="#5CC0FF" stroke-width="3"/>
  <rect x="1.5" y="1.5" width="169" height="150" rx="8.5" stroke="#5CC0FF" stroke-width="3"/>
  <rect x="1.5" y="1.5" width="169" height="150" rx="8.5" stroke="#5CC0FF" stroke-width="3"/>
  <rect x="1.5" y="1.5" width="169" height="150" rx="8.5" stroke="#5CC0FF" stroke-width="3"/>
  <rect x="1.5" y="1.5" width="169" height="150" rx="8.5" stroke="#5CC0FF" stroke-width="3"/>
  <rect x="1.5" y="1.5" width="169" height="150" rx="8.5" stroke="#5CC0FF" stroke-width="3"/>
  <rect x="1.5" y="1.5" width="169" height="150" rx="8.5" stroke="#5CC0FF" stroke-width="3"/>
  <rect x="1.5" y="1.5" width="169" height="150" rx="8.5" stroke="#5CC0FF" stroke-width="3"/>
  <rect x="1.5" y="1.5" width="169" height="150" rx="8.5" stroke="#5CC0FF" stroke-width="3"/>
  <rect x="1.5" y="1.5" width="169" height="150" rx="8.5" stroke="#5CC0FF" stroke-width="3"/>
  <rect x="1.5" y="1.5" width="169" height="150" rx="8.5" stroke="#5CC0FF" stroke-width="3"/>
  <rect x="1.5" y="1.5" width="169" height="150" rx="8.5" stroke="#5CC0FF" stroke-width="3"/>
  <rect x="1.5" y="1.5" width="169" height="150" rx="8.5" stroke="#5CC0FF" stroke-width="3"/>
  <rect x="1.5" y="1.5" width="169" height="150" rx="8.5" stroke="#5CC0FF" stroke-width="3"/>
  <rect x="1.5" y="1.5" width="169" height="150" rx="8.5" stroke="#5CC0FF" stroke-width="3"/>
  <rect x="1.5" y="1.5" width="169" height="150" rx="8.5" stroke="#5CC0FF" stroke-width="3"/>
  <rect x="1.5" y="1.5" width="169" height="150" rx="8.5" stroke="#5CC0FF" stroke-width="3"/>
  <rect x="1.5" y="1.5" width="169" height="150" rx="8.5" stroke="#5CC0FF" stroke-width="3"/>
  <rect x="1.5" y="1.5" width="169" height="150" rx="8.5" stroke="#5CC0FF" stroke-width="3"/>
  <rect x="1.5" y="1.5" width="169" height="150" rx="8.5" stroke="#5CC0FF" stroke-width="3"/>
  <rect x="1.5" y="1.5" width="169" height="150" rx="8.5" stroke="#5CC0FF" stroke-width="3"/>
  <rect x="1.5" y="1.5" width="169" height="150" rx="8.5" stroke="#5CC0FF" stroke-width="3"/>
  <rect x="1.5" y="1.5" width="169" height="150" rx="8.5" stroke="#5CC0FF" stroke-width="3"/>
  <rect x="1.5" y="1.5" width="169" height="150" rx="8.5" stroke="#5CC0FF" stroke-width="3"/>
  <rect x="1.5" y="1.5" width="169" height="150" rx="8.5" stroke="#5CC0FF" stroke-width="3"/>
  <rect x="1.5" y="1.5" width="169" height="150" rx="8.5" stroke="#5CC0FF" stroke-width="3"/>
  <rect x="1.5" y="1.5" width="169" height="150" rx="8.5" stroke="#5CC0FF" stroke-width="3"/>
  <rect x="1.5" y="1.5" width="169" height="150" rx="8.5" stroke="#5CC0FF" stroke-width="3"/>
  <rect x="1.5" y="1.5" width="169" height="150" rx="8.5" stroke="#5CC0FF" stroke-width="3"/>
  <rect x="1.5" y="1.5" width="169" height="150" rx="8.5" stroke="#5CC0FF" stroke-width="3"/>
  <rect x="1.5" y="1.5" width="169" height="150" rx="8.5" stroke="#5CC0FF" stroke-width="3"/>
  <rect x="1.5" y="1.5" width="169" height="150" rx="8.5" stroke="#5CC0FF" stroke-width="3"/>
</svg>
